<mxfile host="app.diagrams.net" modified="2024-01-14T22:04:04.762Z" agent="Mozilla/5.0 (X11; Ubuntu; Linux x86_64; rv:121.0) Gecko/20100101 Firefox/121.0" etag="oDHKCAe06E4Xy1xkrFQm" version="22.1.18" type="device">
  <diagram name="Page-1" id="e7e014a7-5840-1c2e-5031-d8a46d1fe8dd">
    <mxGraphModel dx="794" dy="-391" grid="1" gridSize="10" guides="1" tooltips="1" connect="1" arrows="1" fold="1" page="1" pageScale="1" pageWidth="1169" pageHeight="826" background="none" math="0" shadow="0">
      <root>
        <mxCell id="0" />
        <mxCell id="1" parent="0" />
        <mxCell id="gfUBth482DZoh4JY9FzU-120" value="User" style="swimlane;whiteSpace=wrap" parent="1" vertex="1">
          <mxGeometry x="220.5" y="860" width="195.5" height="490" as="geometry">
            <mxRectangle x="164.5" y="128" width="90" height="30" as="alternateBounds" />
          </mxGeometry>
        </mxCell>
        <mxCell id="gfUBth482DZoh4JY9FzU-121" value="" style="ellipse;shape=startState;fillColor=#000000;strokeColor=#ff0000;" parent="gfUBth482DZoh4JY9FzU-120" vertex="1">
          <mxGeometry x="100" y="40" width="30" height="30" as="geometry" />
        </mxCell>
        <mxCell id="gfUBth482DZoh4JY9FzU-122" value="" style="edgeStyle=elbowEdgeStyle;elbow=horizontal;verticalAlign=bottom;endArrow=open;endSize=8;strokeColor=#FF0000;endFill=1;rounded=0;exitX=0.5;exitY=1;exitDx=0;exitDy=0;" parent="gfUBth482DZoh4JY9FzU-120" source="gfUBth482DZoh4JY9FzU-121" target="gfUBth482DZoh4JY9FzU-123" edge="1">
          <mxGeometry x="100" y="40" as="geometry">
            <mxPoint x="115" y="110" as="targetPoint" />
          </mxGeometry>
        </mxCell>
        <mxCell id="gfUBth482DZoh4JY9FzU-123" value="Register" style="" parent="gfUBth482DZoh4JY9FzU-120" vertex="1">
          <mxGeometry x="60" y="110" width="110" height="50" as="geometry" />
        </mxCell>
        <mxCell id="gfUBth482DZoh4JY9FzU-124" value="Log in" style="" parent="gfUBth482DZoh4JY9FzU-120" vertex="1">
          <mxGeometry x="60" y="340" width="110" height="50" as="geometry" />
        </mxCell>
        <mxCell id="gfUBth482DZoh4JY9FzU-125" value="" style="endArrow=open;strokeColor=#FF0000;endFill=1;rounded=0;entryX=0;entryY=0.5;entryDx=0;entryDy=0;" parent="gfUBth482DZoh4JY9FzU-120" target="gfUBth482DZoh4JY9FzU-129" edge="1">
          <mxGeometry relative="1" as="geometry">
            <mxPoint x="170" y="134.5" as="sourcePoint" />
            <mxPoint x="300" y="134.5" as="targetPoint" />
            <Array as="points">
              <mxPoint x="235.5" y="134.5" />
            </Array>
          </mxGeometry>
        </mxCell>
        <mxCell id="gfUBth482DZoh4JY9FzU-126" value="" style="ellipse;shape=endState;fillColor=#000000;strokeColor=#ff0000" parent="gfUBth482DZoh4JY9FzU-120" vertex="1">
          <mxGeometry x="100" y="450" width="30" height="30" as="geometry" />
        </mxCell>
        <mxCell id="gfUBth482DZoh4JY9FzU-127" value="" style="endArrow=open;strokeColor=#FF0000;endFill=1;rounded=0;exitX=0.5;exitY=1;exitDx=0;exitDy=0;" parent="gfUBth482DZoh4JY9FzU-120" source="gfUBth482DZoh4JY9FzU-124" target="gfUBth482DZoh4JY9FzU-126" edge="1">
          <mxGeometry relative="1" as="geometry">
            <mxPoint x="115.5" y="420" as="sourcePoint" />
          </mxGeometry>
        </mxCell>
        <mxCell id="gfUBth482DZoh4JY9FzU-138" value="" style="rounded=0;whiteSpace=wrap;html=1;" parent="gfUBth482DZoh4JY9FzU-120" vertex="1">
          <mxGeometry x="130" y="160" width="30" height="10" as="geometry" />
        </mxCell>
        <mxCell id="gfUBth482DZoh4JY9FzU-128" value="System" style="swimlane;whiteSpace=wrap" parent="1" vertex="1">
          <mxGeometry x="416" y="860" width="220" height="490" as="geometry" />
        </mxCell>
        <mxCell id="gfUBth482DZoh4JY9FzU-129" value="Validate" style="" parent="gfUBth482DZoh4JY9FzU-128" vertex="1">
          <mxGeometry x="20" y="110" width="110" height="50" as="geometry" />
        </mxCell>
        <mxCell id="gfUBth482DZoh4JY9FzU-130" value="" style="rhombus;fillColor=#ffffc0;strokeColor=#ff0000;" parent="gfUBth482DZoh4JY9FzU-128" vertex="1">
          <mxGeometry x="35" y="200" width="80" height="40" as="geometry" />
        </mxCell>
        <mxCell id="gfUBth482DZoh4JY9FzU-131" value="[else]" style="edgeStyle=orthogonalEdgeStyle;elbow=horizontal;align=left;verticalAlign=top;endArrow=open;endSize=8;strokeColor=#FF0000;endFill=1;rounded=0;exitX=1;exitY=0.5;exitDx=0;exitDy=0;entryX=0.5;entryY=0;entryDx=0;entryDy=0;" parent="gfUBth482DZoh4JY9FzU-128" source="gfUBth482DZoh4JY9FzU-130" target="gfUBth482DZoh4JY9FzU-133" edge="1">
          <mxGeometry x="-1" relative="1" as="geometry">
            <mxPoint x="190" y="305" as="targetPoint" />
            <Array as="points">
              <mxPoint x="155" y="220" />
            </Array>
          </mxGeometry>
        </mxCell>
        <mxCell id="gfUBth482DZoh4JY9FzU-132" value="" style="edgeStyle=elbowEdgeStyle;elbow=horizontal;verticalAlign=bottom;endArrow=open;endSize=8;strokeColor=#FF0000;endFill=1;rounded=0;exitX=0.5;exitY=1;exitDx=0;exitDy=0;entryX=0.5;entryY=0;entryDx=0;entryDy=0;" parent="gfUBth482DZoh4JY9FzU-128" source="gfUBth482DZoh4JY9FzU-129" target="gfUBth482DZoh4JY9FzU-130" edge="1">
          <mxGeometry x="130" y="90" as="geometry">
            <mxPoint x="195.5" y="220" as="targetPoint" />
            <mxPoint x="147.5" y="135" as="sourcePoint" />
            <Array as="points" />
          </mxGeometry>
        </mxCell>
        <mxCell id="gfUBth482DZoh4JY9FzU-133" value="Create user" style="" parent="gfUBth482DZoh4JY9FzU-128" vertex="1">
          <mxGeometry x="100" y="340" width="110" height="50" as="geometry" />
        </mxCell>
        <mxCell id="gfUBth482DZoh4JY9FzU-134" value="[user exists]" style="edgeStyle=elbowEdgeStyle;elbow=horizontal;align=left;verticalAlign=top;endArrow=open;endSize=8;strokeColor=#FF0000;endFill=1;rounded=0;entryX=0.5;entryY=0;entryDx=0;entryDy=0;exitX=0.5;exitY=1;exitDx=0;exitDy=0;" parent="gfUBth482DZoh4JY9FzU-128" source="gfUBth482DZoh4JY9FzU-130" target="gfUBth482DZoh4JY9FzU-135" edge="1">
          <mxGeometry x="-1" relative="1" as="geometry">
            <mxPoint x="65.5" y="180" as="targetPoint" />
            <mxPoint x="85" y="280" as="sourcePoint" />
            <Array as="points">
              <mxPoint x="75" y="250" />
            </Array>
          </mxGeometry>
        </mxCell>
        <mxCell id="gfUBth482DZoh4JY9FzU-135" value="Notify user" style="" parent="gfUBth482DZoh4JY9FzU-128" vertex="1">
          <mxGeometry x="20" y="280" width="110" height="50" as="geometry" />
        </mxCell>
        <mxCell id="gfUBth482DZoh4JY9FzU-139" value="" style="rounded=0;whiteSpace=wrap;html=1;" parent="gfUBth482DZoh4JY9FzU-128" vertex="1">
          <mxGeometry x="25" y="160" width="30" height="10" as="geometry" />
        </mxCell>
        <mxCell id="gfUBth482DZoh4JY9FzU-137" style="edgeStyle=orthogonalEdgeStyle;rounded=0;orthogonalLoop=1;jettySize=auto;html=1;exitX=0;exitY=0.5;exitDx=0;exitDy=0;entryX=1;entryY=0.5;entryDx=0;entryDy=0;strokeColor=#FF3333;endArrow=open;endFill=0;" parent="1" source="gfUBth482DZoh4JY9FzU-133" target="gfUBth482DZoh4JY9FzU-124" edge="1">
          <mxGeometry relative="1" as="geometry" />
        </mxCell>
        <mxCell id="gfUBth482DZoh4JY9FzU-136" value="" style="edgeStyle=elbowEdgeStyle;elbow=horizontal;strokeColor=#FF0000;endArrow=open;endFill=1;rounded=0;exitX=0;exitY=0.5;exitDx=0;exitDy=0;entryX=0;entryY=0.5;entryDx=0;entryDy=0;" parent="1" source="gfUBth482DZoh4JY9FzU-135" target="gfUBth482DZoh4JY9FzU-123" edge="1">
          <mxGeometry width="100" height="100" relative="1" as="geometry">
            <mxPoint x="546.5" y="1180" as="sourcePoint" />
            <mxPoint x="416" y="1010" as="targetPoint" />
            <Array as="points">
              <mxPoint x="256" y="1070" />
            </Array>
          </mxGeometry>
        </mxCell>
        <mxCell id="gfUBth482DZoh4JY9FzU-141" value="" style="endArrow=classic;html=1;rounded=0;entryX=0.5;entryY=1;entryDx=0;entryDy=0;edgeStyle=orthogonalEdgeStyle;exitX=0.5;exitY=1;exitDx=0;exitDy=0;strokeColor=#3399FF;" parent="1" source="gfUBth482DZoh4JY9FzU-138" target="gfUBth482DZoh4JY9FzU-139" edge="1">
          <mxGeometry relative="1" as="geometry">
            <mxPoint x="390.5" y="1070" as="sourcePoint" />
            <mxPoint x="490.5" y="1070" as="targetPoint" />
            <Array as="points">
              <mxPoint x="366" y="1050" />
              <mxPoint x="456" y="1050" />
            </Array>
          </mxGeometry>
        </mxCell>
        <mxCell id="gfUBth482DZoh4JY9FzU-142" value="login&lt;br&gt;password&lt;br&gt;inviter login" style="edgeLabel;resizable=0;html=1;align=center;verticalAlign=middle;fontColor=#3399FF;" parent="gfUBth482DZoh4JY9FzU-141" connectable="0" vertex="1">
          <mxGeometry relative="1" as="geometry">
            <mxPoint x="-5" y="3" as="offset" />
          </mxGeometry>
        </mxCell>
        <mxCell id="gfUBth482DZoh4JY9FzU-149" value="User" style="swimlane;whiteSpace=wrap" parent="1" vertex="1">
          <mxGeometry x="180" y="1405" width="170" height="495" as="geometry">
            <mxRectangle x="164.5" y="128" width="90" height="30" as="alternateBounds" />
          </mxGeometry>
        </mxCell>
        <mxCell id="gfUBth482DZoh4JY9FzU-150" value="Choose an&#xa;assistant" style="" parent="gfUBth482DZoh4JY9FzU-149" vertex="1">
          <mxGeometry x="30" y="110" width="110" height="50" as="geometry" />
        </mxCell>
        <mxCell id="gfUBth482DZoh4JY9FzU-151" value="Send message" style="" parent="gfUBth482DZoh4JY9FzU-149" vertex="1">
          <mxGeometry x="30" y="220" width="110" height="50" as="geometry" />
        </mxCell>
        <mxCell id="gfUBth482DZoh4JY9FzU-152" value="" style="endArrow=open;strokeColor=#FF0000;endFill=1;rounded=0" parent="gfUBth482DZoh4JY9FzU-149" source="gfUBth482DZoh4JY9FzU-150" target="gfUBth482DZoh4JY9FzU-151" edge="1">
          <mxGeometry relative="1" as="geometry" />
        </mxCell>
        <mxCell id="gfUBth482DZoh4JY9FzU-153" value="Get message" style="" parent="gfUBth482DZoh4JY9FzU-149" vertex="1">
          <mxGeometry x="30" y="300" width="110" height="50" as="geometry" />
        </mxCell>
        <mxCell id="gfUBth482DZoh4JY9FzU-154" value="" style="endArrow=open;strokeColor=#FF0000;endFill=1;rounded=0;exitX=0;exitY=0.5;exitDx=0;exitDy=0;entryX=0;entryY=0.5;entryDx=0;entryDy=0;edgeStyle=orthogonalEdgeStyle;" parent="gfUBth482DZoh4JY9FzU-149" source="4h8BEqm_R4JHtVqycVa3-3" target="gfUBth482DZoh4JY9FzU-151" edge="1">
          <mxGeometry relative="1" as="geometry">
            <mxPoint x="215" y="380" as="sourcePoint" />
            <mxPoint x="5" y="380" as="targetPoint" />
            <Array as="points">
              <mxPoint x="10" y="395" />
              <mxPoint x="10" y="245" />
            </Array>
          </mxGeometry>
        </mxCell>
        <mxCell id="gfUBth482DZoh4JY9FzU-155" value="" style="ellipse;shape=endState;fillColor=#000000;strokeColor=#ff0000" parent="gfUBth482DZoh4JY9FzU-149" vertex="1">
          <mxGeometry x="70" y="445" width="30" height="30" as="geometry" />
        </mxCell>
        <mxCell id="gfUBth482DZoh4JY9FzU-156" value="" style="endArrow=open;strokeColor=#FF0000;endFill=1;rounded=0;exitX=0.5;exitY=1;exitDx=0;exitDy=0;entryX=0.5;entryY=0;entryDx=0;entryDy=0;" parent="gfUBth482DZoh4JY9FzU-149" source="gfUBth482DZoh4JY9FzU-153" target="4h8BEqm_R4JHtVqycVa3-3" edge="1">
          <mxGeometry relative="1" as="geometry">
            <mxPoint x="610" y="345" as="sourcePoint" />
            <mxPoint x="85" y="410" as="targetPoint" />
          </mxGeometry>
        </mxCell>
        <mxCell id="gfUBth482DZoh4JY9FzU-172" value="" style="rounded=0;whiteSpace=wrap;html=1;" parent="gfUBth482DZoh4JY9FzU-149" vertex="1">
          <mxGeometry x="100" y="210" width="30" height="10" as="geometry" />
        </mxCell>
        <mxCell id="gfUBth482DZoh4JY9FzU-179" value="" style="rounded=0;whiteSpace=wrap;html=1;" parent="gfUBth482DZoh4JY9FzU-149" vertex="1">
          <mxGeometry x="100" y="350" width="30" height="10" as="geometry" />
        </mxCell>
        <mxCell id="4h8BEqm_R4JHtVqycVa3-3" value="" style="rhombus;fillColor=#ffffc0;strokeColor=#ff0000;" parent="gfUBth482DZoh4JY9FzU-149" vertex="1">
          <mxGeometry x="45" y="375" width="80" height="40" as="geometry" />
        </mxCell>
        <mxCell id="4h8BEqm_R4JHtVqycVa3-4" value="[continue chat]" style="text;html=1;strokeColor=none;fillColor=none;align=center;verticalAlign=middle;whiteSpace=wrap;rounded=0;" parent="gfUBth482DZoh4JY9FzU-149" vertex="1">
          <mxGeometry x="10" y="365" width="60" height="30" as="geometry" />
        </mxCell>
        <mxCell id="4h8BEqm_R4JHtVqycVa3-5" value="&amp;nbsp;[else]" style="text;html=1;strokeColor=none;fillColor=none;align=center;verticalAlign=middle;whiteSpace=wrap;rounded=0;" parent="gfUBth482DZoh4JY9FzU-149" vertex="1">
          <mxGeometry x="70" y="415" width="60" height="30" as="geometry" />
        </mxCell>
        <mxCell id="4h8BEqm_R4JHtVqycVa3-6" value="" style="endArrow=open;strokeColor=#FF0000;endFill=1;rounded=0;exitX=0.5;exitY=1;exitDx=0;exitDy=0;entryX=0.5;entryY=0;entryDx=0;entryDy=0;" parent="gfUBth482DZoh4JY9FzU-149" source="4h8BEqm_R4JHtVqycVa3-3" target="gfUBth482DZoh4JY9FzU-155" edge="1">
          <mxGeometry relative="1" as="geometry">
            <mxPoint x="95" y="360" as="sourcePoint" />
            <mxPoint x="95" y="385" as="targetPoint" />
          </mxGeometry>
        </mxCell>
        <mxCell id="gfUBth482DZoh4JY9FzU-157" value="System" style="swimlane;whiteSpace=wrap" parent="1" vertex="1">
          <mxGeometry x="350" y="1405" width="170" height="495" as="geometry" />
        </mxCell>
        <mxCell id="gfUBth482DZoh4JY9FzU-158" value="" style="ellipse;shape=startState;fillColor=#000000;strokeColor=#ff0000;" parent="gfUBth482DZoh4JY9FzU-157" vertex="1">
          <mxGeometry x="70" y="40" width="30" height="30" as="geometry" />
        </mxCell>
        <mxCell id="gfUBth482DZoh4JY9FzU-159" value="" style="edgeStyle=elbowEdgeStyle;elbow=horizontal;verticalAlign=bottom;endArrow=open;endSize=8;strokeColor=#FF0000;endFill=1;rounded=0" parent="gfUBth482DZoh4JY9FzU-157" source="gfUBth482DZoh4JY9FzU-158" target="gfUBth482DZoh4JY9FzU-160" edge="1">
          <mxGeometry x="40" y="20" as="geometry">
            <mxPoint x="65" y="90" as="targetPoint" />
          </mxGeometry>
        </mxCell>
        <mxCell id="gfUBth482DZoh4JY9FzU-160" value="Get available&#xa;assistants" style="" parent="gfUBth482DZoh4JY9FzU-157" vertex="1">
          <mxGeometry x="30" y="110" width="110" height="50" as="geometry" />
        </mxCell>
        <mxCell id="gfUBth482DZoh4JY9FzU-161" value="Send request" style="" parent="gfUBth482DZoh4JY9FzU-157" vertex="1">
          <mxGeometry x="30" y="220" width="110" height="50" as="geometry" />
        </mxCell>
        <mxCell id="gfUBth482DZoh4JY9FzU-162" value="Send message as&#xa;assistant" style="" parent="gfUBth482DZoh4JY9FzU-157" vertex="1">
          <mxGeometry x="30" y="300" width="110" height="50" as="geometry" />
        </mxCell>
        <mxCell id="gfUBth482DZoh4JY9FzU-173" value="" style="rounded=0;whiteSpace=wrap;html=1;" parent="gfUBth482DZoh4JY9FzU-157" vertex="1">
          <mxGeometry x="40" y="210" width="30" height="10" as="geometry" />
        </mxCell>
        <mxCell id="gfUBth482DZoh4JY9FzU-174" value="" style="rounded=0;whiteSpace=wrap;html=1;" parent="gfUBth482DZoh4JY9FzU-157" vertex="1">
          <mxGeometry x="100" y="210" width="30" height="10" as="geometry" />
        </mxCell>
        <mxCell id="gfUBth482DZoh4JY9FzU-177" value="" style="rounded=0;whiteSpace=wrap;html=1;" parent="gfUBth482DZoh4JY9FzU-157" vertex="1">
          <mxGeometry x="100" y="350" width="30" height="10" as="geometry" />
        </mxCell>
        <mxCell id="gfUBth482DZoh4JY9FzU-178" value="" style="rounded=0;whiteSpace=wrap;html=1;" parent="gfUBth482DZoh4JY9FzU-157" vertex="1">
          <mxGeometry x="40.5" y="350" width="30" height="10" as="geometry" />
        </mxCell>
        <mxCell id="gfUBth482DZoh4JY9FzU-163" value="OpenAI" style="swimlane;whiteSpace=wrap" parent="1" vertex="1">
          <mxGeometry x="520" y="1405" width="170" height="495" as="geometry" />
        </mxCell>
        <mxCell id="gfUBth482DZoh4JY9FzU-164" value="Process request" style="" parent="gfUBth482DZoh4JY9FzU-163" vertex="1">
          <mxGeometry x="30" y="220" width="110" height="50" as="geometry" />
        </mxCell>
        <mxCell id="gfUBth482DZoh4JY9FzU-165" value="Send response" style="" parent="gfUBth482DZoh4JY9FzU-163" vertex="1">
          <mxGeometry x="30" y="300" width="110" height="50" as="geometry" />
        </mxCell>
        <mxCell id="gfUBth482DZoh4JY9FzU-166" value="" style="endArrow=open;strokeColor=#FF0000;endFill=1;rounded=0;exitX=0.5;exitY=1;exitDx=0;exitDy=0;" parent="gfUBth482DZoh4JY9FzU-163" source="gfUBth482DZoh4JY9FzU-164" edge="1">
          <mxGeometry relative="1" as="geometry">
            <mxPoint x="84.5" y="280" as="sourcePoint" />
            <mxPoint x="85" y="300" as="targetPoint" />
          </mxGeometry>
        </mxCell>
        <mxCell id="gfUBth482DZoh4JY9FzU-175" value="" style="rounded=0;whiteSpace=wrap;html=1;" parent="gfUBth482DZoh4JY9FzU-163" vertex="1">
          <mxGeometry x="40.5" y="210" width="30" height="10" as="geometry" />
        </mxCell>
        <mxCell id="gfUBth482DZoh4JY9FzU-176" value="" style="rounded=0;whiteSpace=wrap;html=1;" parent="gfUBth482DZoh4JY9FzU-163" vertex="1">
          <mxGeometry x="40.5" y="350" width="30" height="10" as="geometry" />
        </mxCell>
        <mxCell id="gfUBth482DZoh4JY9FzU-167" value="" style="endArrow=none;strokeColor=#FF0000;endFill=0;rounded=0;startArrow=open;startFill=0;entryX=0;entryY=0.5;entryDx=0;entryDy=0;exitX=1;exitY=0.5;exitDx=0;exitDy=0;" parent="1" source="gfUBth482DZoh4JY9FzU-153" target="gfUBth482DZoh4JY9FzU-162" edge="1">
          <mxGeometry relative="1" as="geometry" />
        </mxCell>
        <mxCell id="gfUBth482DZoh4JY9FzU-168" value="" style="edgeStyle=elbowEdgeStyle;elbow=horizontal;verticalAlign=bottom;endArrow=open;endSize=8;strokeColor=#FF0000;endFill=1;rounded=0;exitX=0;exitY=0.5;exitDx=0;exitDy=0;entryX=1;entryY=0.5;entryDx=0;entryDy=0;" parent="1" source="gfUBth482DZoh4JY9FzU-160" target="gfUBth482DZoh4JY9FzU-150" edge="1">
          <mxGeometry x="240" y="2200" as="geometry">
            <mxPoint x="340" y="1545" as="targetPoint" />
            <mxPoint x="265" y="1475" as="sourcePoint" />
          </mxGeometry>
        </mxCell>
        <mxCell id="gfUBth482DZoh4JY9FzU-169" value="" style="endArrow=open;strokeColor=#FF0000;endFill=1;rounded=0;exitX=1;exitY=0.5;exitDx=0;exitDy=0;entryX=0;entryY=0.5;entryDx=0;entryDy=0;" parent="1" source="gfUBth482DZoh4JY9FzU-151" target="gfUBth482DZoh4JY9FzU-161" edge="1">
          <mxGeometry relative="1" as="geometry" />
        </mxCell>
        <mxCell id="gfUBth482DZoh4JY9FzU-170" value="" style="endArrow=open;strokeColor=#FF0000;endFill=1;rounded=0;entryX=0;entryY=0.5;entryDx=0;entryDy=0;exitX=1;exitY=0.5;exitDx=0;exitDy=0;" parent="1" source="gfUBth482DZoh4JY9FzU-161" target="gfUBth482DZoh4JY9FzU-164" edge="1">
          <mxGeometry relative="1" as="geometry">
            <mxPoint x="580" y="1650" as="targetPoint" />
          </mxGeometry>
        </mxCell>
        <mxCell id="gfUBth482DZoh4JY9FzU-171" value="" style="endArrow=open;strokeColor=#FF0000;endFill=1;rounded=0;exitX=0;exitY=0.5;exitDx=0;exitDy=0;entryX=1;entryY=0.5;entryDx=0;entryDy=0;" parent="1" source="gfUBth482DZoh4JY9FzU-165" target="gfUBth482DZoh4JY9FzU-162" edge="1">
          <mxGeometry relative="1" as="geometry" />
        </mxCell>
        <mxCell id="gfUBth482DZoh4JY9FzU-182" value="" style="endArrow=open;html=1;rounded=0;endFill=0;strokeColor=#3399FF;edgeStyle=orthogonalEdgeStyle;exitX=0.5;exitY=0;exitDx=0;exitDy=0;entryX=0.5;entryY=0;entryDx=0;entryDy=0;" parent="1" source="gfUBth482DZoh4JY9FzU-172" target="gfUBth482DZoh4JY9FzU-173" edge="1">
          <mxGeometry relative="1" as="geometry">
            <mxPoint x="300.5" y="1585" as="sourcePoint" />
            <mxPoint x="400.5" y="1585" as="targetPoint" />
          </mxGeometry>
        </mxCell>
        <mxCell id="gfUBth482DZoh4JY9FzU-183" value="message&lt;br&gt;attachments" style="edgeLabel;resizable=0;html=1;align=center;verticalAlign=middle;fontColor=#3399FF;" parent="gfUBth482DZoh4JY9FzU-182" connectable="0" vertex="1">
          <mxGeometry relative="1" as="geometry" />
        </mxCell>
        <mxCell id="gfUBth482DZoh4JY9FzU-184" value="" style="endArrow=open;html=1;rounded=0;endFill=0;strokeColor=#3399FF;edgeStyle=orthogonalEdgeStyle;exitX=0.5;exitY=0;exitDx=0;exitDy=0;entryX=0.5;entryY=0;entryDx=0;entryDy=0;" parent="1" source="gfUBth482DZoh4JY9FzU-174" target="gfUBth482DZoh4JY9FzU-175" edge="1">
          <mxGeometry relative="1" as="geometry">
            <mxPoint x="465" y="1595" as="sourcePoint" />
            <mxPoint x="575" y="1595" as="targetPoint" />
          </mxGeometry>
        </mxCell>
        <mxCell id="gfUBth482DZoh4JY9FzU-185" value="message&lt;br&gt;attachments" style="edgeLabel;resizable=0;html=1;align=center;verticalAlign=middle;fontColor=#3399FF;" parent="gfUBth482DZoh4JY9FzU-184" connectable="0" vertex="1">
          <mxGeometry relative="1" as="geometry" />
        </mxCell>
        <mxCell id="gfUBth482DZoh4JY9FzU-186" value="" style="endArrow=none;html=1;rounded=0;endFill=0;strokeColor=#3399FF;edgeStyle=orthogonalEdgeStyle;startArrow=open;startFill=0;entryX=0.5;entryY=1;entryDx=0;entryDy=0;exitX=0.5;exitY=1;exitDx=0;exitDy=0;" parent="1" source="gfUBth482DZoh4JY9FzU-177" target="gfUBth482DZoh4JY9FzU-176" edge="1">
          <mxGeometry relative="1" as="geometry">
            <mxPoint x="470.5" y="1795" as="sourcePoint" />
            <mxPoint x="570.5" y="1795" as="targetPoint" />
          </mxGeometry>
        </mxCell>
        <mxCell id="gfUBth482DZoh4JY9FzU-187" value="message&lt;br&gt;attachments" style="edgeLabel;resizable=0;html=1;align=center;verticalAlign=middle;fontColor=#3399FF;" parent="gfUBth482DZoh4JY9FzU-186" connectable="0" vertex="1">
          <mxGeometry relative="1" as="geometry" />
        </mxCell>
        <mxCell id="gfUBth482DZoh4JY9FzU-180" value="" style="endArrow=none;html=1;rounded=0;endFill=0;strokeColor=#3399FF;edgeStyle=orthogonalEdgeStyle;startArrow=open;startFill=0;entryX=0.5;entryY=1;entryDx=0;entryDy=0;exitX=0.5;exitY=1;exitDx=0;exitDy=0;" parent="1" source="gfUBth482DZoh4JY9FzU-179" target="gfUBth482DZoh4JY9FzU-178" edge="1">
          <mxGeometry relative="1" as="geometry">
            <mxPoint x="290" y="1795" as="sourcePoint" />
            <mxPoint x="390" y="1795" as="targetPoint" />
          </mxGeometry>
        </mxCell>
        <mxCell id="gfUBth482DZoh4JY9FzU-181" value="message&lt;br&gt;attachments" style="edgeLabel;resizable=0;html=1;align=center;verticalAlign=middle;fontColor=#3399FF;" parent="gfUBth482DZoh4JY9FzU-180" connectable="0" vertex="1">
          <mxGeometry relative="1" as="geometry" />
        </mxCell>
        <mxCell id="gfUBth482DZoh4JY9FzU-259" value="User " style="swimlane;whiteSpace=wrap" parent="1" vertex="1">
          <mxGeometry x="239.5" y="3680" width="160" height="850" as="geometry">
            <mxRectangle x="164.5" y="128" width="90" height="30" as="alternateBounds" />
          </mxGeometry>
        </mxCell>
        <mxCell id="gfUBth482DZoh4JY9FzU-260" value="Request&#xa;billing plans" style="" parent="gfUBth482DZoh4JY9FzU-259" vertex="1">
          <mxGeometry x="22.5" y="110" width="110" height="50" as="geometry" />
        </mxCell>
        <mxCell id="gfUBth482DZoh4JY9FzU-261" value="Choose a&#xa;biling plan" style="" parent="gfUBth482DZoh4JY9FzU-259" vertex="1">
          <mxGeometry x="22.5" y="190" width="110" height="50" as="geometry" />
        </mxCell>
        <mxCell id="gfUBth482DZoh4JY9FzU-262" value="Request available&#xa;payment methods" style="" parent="gfUBth482DZoh4JY9FzU-259" vertex="1">
          <mxGeometry x="22.5" y="270" width="110" height="50" as="geometry" />
        </mxCell>
        <mxCell id="gfUBth482DZoh4JY9FzU-263" value="" style="endArrow=open;strokeColor=#FF0000;endFill=1;rounded=0" parent="gfUBth482DZoh4JY9FzU-259" source="gfUBth482DZoh4JY9FzU-261" target="gfUBth482DZoh4JY9FzU-262" edge="1">
          <mxGeometry relative="1" as="geometry" />
        </mxCell>
        <mxCell id="gfUBth482DZoh4JY9FzU-264" value="" style="edgeStyle=elbowEdgeStyle;elbow=horizontal;verticalAlign=bottom;endArrow=open;endSize=8;strokeColor=#FF0000;endFill=1;rounded=0;entryX=0.5;entryY=0;entryDx=0;entryDy=0;exitX=0.5;exitY=1;exitDx=0;exitDy=0;" parent="gfUBth482DZoh4JY9FzU-259" source="gfUBth482DZoh4JY9FzU-265" target="gfUBth482DZoh4JY9FzU-260" edge="1">
          <mxGeometry x="320" y="20" as="geometry">
            <mxPoint x="77.5" y="110" as="targetPoint" />
          </mxGeometry>
        </mxCell>
        <mxCell id="gfUBth482DZoh4JY9FzU-265" value="" style="ellipse;shape=startState;fillColor=#000000;strokeColor=#ff0000;" parent="gfUBth482DZoh4JY9FzU-259" vertex="1">
          <mxGeometry x="62.5" y="40" width="30" height="30" as="geometry" />
        </mxCell>
        <mxCell id="gfUBth482DZoh4JY9FzU-266" value="Choose available&#xa;payment methods" style="" parent="gfUBth482DZoh4JY9FzU-259" vertex="1">
          <mxGeometry x="22.5" y="350" width="110" height="50" as="geometry" />
        </mxCell>
        <mxCell id="gfUBth482DZoh4JY9FzU-267" value="Pay" style="" parent="gfUBth482DZoh4JY9FzU-259" vertex="1">
          <mxGeometry x="22.5" y="430" width="110" height="50" as="geometry" />
        </mxCell>
        <mxCell id="gfUBth482DZoh4JY9FzU-268" value="" style="endArrow=open;strokeColor=#FF0000;endFill=1;rounded=0;exitX=0.5;exitY=1;exitDx=0;exitDy=0;entryX=0.5;entryY=0;entryDx=0;entryDy=0;" parent="gfUBth482DZoh4JY9FzU-259" source="gfUBth482DZoh4JY9FzU-266" target="gfUBth482DZoh4JY9FzU-267" edge="1">
          <mxGeometry relative="1" as="geometry">
            <mxPoint x="87.5" y="250" as="sourcePoint" />
            <mxPoint x="87.5" y="280" as="targetPoint" />
          </mxGeometry>
        </mxCell>
        <mxCell id="gfUBth482DZoh4JY9FzU-269" value="Get notification" style="" parent="gfUBth482DZoh4JY9FzU-259" vertex="1">
          <mxGeometry x="27.5" y="710" width="110" height="50" as="geometry" />
        </mxCell>
        <mxCell id="gfUBth482DZoh4JY9FzU-270" value="" style="ellipse;shape=endState;fillColor=#000000;strokeColor=#ff0000" parent="gfUBth482DZoh4JY9FzU-259" vertex="1">
          <mxGeometry x="67.5" y="800" width="30" height="30" as="geometry" />
        </mxCell>
        <mxCell id="gfUBth482DZoh4JY9FzU-271" value="" style="endArrow=open;strokeColor=#FF0000;endFill=1;rounded=0;entryX=0.5;entryY=0;entryDx=0;entryDy=0;exitX=0.5;exitY=1;exitDx=0;exitDy=0;" parent="gfUBth482DZoh4JY9FzU-259" source="gfUBth482DZoh4JY9FzU-269" target="gfUBth482DZoh4JY9FzU-270" edge="1">
          <mxGeometry relative="1" as="geometry">
            <mxPoint x="77.5" y="780" as="sourcePoint" />
            <mxPoint x="82.5" y="820" as="targetPoint" />
          </mxGeometry>
        </mxCell>
        <mxCell id="gfUBth482DZoh4JY9FzU-272" value="System" style="swimlane;whiteSpace=wrap" parent="1" vertex="1">
          <mxGeometry x="399.5" y="3680" width="160" height="850" as="geometry" />
        </mxCell>
        <mxCell id="gfUBth482DZoh4JY9FzU-273" value="Get billing plans" style="" parent="gfUBth482DZoh4JY9FzU-272" vertex="1">
          <mxGeometry x="25" y="110" width="110" height="50" as="geometry" />
        </mxCell>
        <mxCell id="gfUBth482DZoh4JY9FzU-274" value="Send available&#xa;billing plans" style="" parent="gfUBth482DZoh4JY9FzU-272" vertex="1">
          <mxGeometry x="25" y="190" width="110" height="50" as="geometry" />
        </mxCell>
        <mxCell id="gfUBth482DZoh4JY9FzU-275" value="" style="endArrow=open;strokeColor=#FF0000;endFill=1;rounded=0" parent="gfUBth482DZoh4JY9FzU-272" source="gfUBth482DZoh4JY9FzU-273" target="gfUBth482DZoh4JY9FzU-274" edge="1">
          <mxGeometry relative="1" as="geometry" />
        </mxCell>
        <mxCell id="gfUBth482DZoh4JY9FzU-276" value="Get available&#xa;payment methods" style="" parent="gfUBth482DZoh4JY9FzU-272" vertex="1">
          <mxGeometry x="25" y="270" width="110" height="50" as="geometry" />
        </mxCell>
        <mxCell id="gfUBth482DZoh4JY9FzU-277" value="Send available&#xa;payment methods" style="" parent="gfUBth482DZoh4JY9FzU-272" vertex="1">
          <mxGeometry x="25" y="350" width="110" height="50" as="geometry" />
        </mxCell>
        <mxCell id="gfUBth482DZoh4JY9FzU-278" value="" style="endArrow=open;strokeColor=#FF0000;endFill=1;rounded=0;exitX=0.5;exitY=1;exitDx=0;exitDy=0;entryX=0.5;entryY=0;entryDx=0;entryDy=0;" parent="gfUBth482DZoh4JY9FzU-272" source="gfUBth482DZoh4JY9FzU-276" target="gfUBth482DZoh4JY9FzU-277" edge="1">
          <mxGeometry relative="1" as="geometry">
            <mxPoint x="-75" y="305" as="sourcePoint" />
            <mxPoint x="35" y="305" as="targetPoint" />
          </mxGeometry>
        </mxCell>
        <mxCell id="gfUBth482DZoh4JY9FzU-279" value="Store the chosen&#xa;billing plan" style="" parent="gfUBth482DZoh4JY9FzU-272" vertex="1">
          <mxGeometry x="25" y="630" width="110" height="50" as="geometry" />
        </mxCell>
        <mxCell id="gfUBth482DZoh4JY9FzU-280" value="Notify" style="" parent="gfUBth482DZoh4JY9FzU-272" vertex="1">
          <mxGeometry x="25" y="710" width="110" height="50" as="geometry" />
        </mxCell>
        <mxCell id="gfUBth482DZoh4JY9FzU-281" value="" style="endArrow=open;strokeColor=#FF0000;endFill=1;rounded=0;exitX=0.5;exitY=1;exitDx=0;exitDy=0;entryX=0.5;entryY=0;entryDx=0;entryDy=0;" parent="gfUBth482DZoh4JY9FzU-272" source="gfUBth482DZoh4JY9FzU-279" target="gfUBth482DZoh4JY9FzU-280" edge="1">
          <mxGeometry relative="1" as="geometry">
            <mxPoint x="90" y="330" as="sourcePoint" />
            <mxPoint x="90" y="355" as="targetPoint" />
          </mxGeometry>
        </mxCell>
        <mxCell id="gfUBth482DZoh4JY9FzU-282" value="" style="endArrow=none;strokeColor=#FF0000;endFill=0;rounded=0;exitX=1;exitY=0.5;exitDx=0;exitDy=0;entryX=0;entryY=0.5;entryDx=0;entryDy=0;startArrow=open;startFill=0;" parent="1" source="gfUBth482DZoh4JY9FzU-261" target="gfUBth482DZoh4JY9FzU-274" edge="1">
          <mxGeometry relative="1" as="geometry" />
        </mxCell>
        <mxCell id="gfUBth482DZoh4JY9FzU-283" value="" style="edgeStyle=elbowEdgeStyle;elbow=horizontal;strokeColor=#FF0000;endArrow=open;endFill=1;rounded=0;entryX=0;entryY=0.5;entryDx=0;entryDy=0;exitX=1;exitY=0.5;exitDx=0;exitDy=0;" parent="1" source="gfUBth482DZoh4JY9FzU-260" target="gfUBth482DZoh4JY9FzU-273" edge="1">
          <mxGeometry width="100" height="100" relative="1" as="geometry">
            <mxPoint x="399.5" y="3970" as="sourcePoint" />
            <mxPoint x="499.5" y="3870" as="targetPoint" />
            <Array as="points" />
          </mxGeometry>
        </mxCell>
        <mxCell id="gfUBth482DZoh4JY9FzU-284" value="" style="endArrow=open;strokeColor=#FF0000;endFill=1;rounded=0;exitX=1;exitY=0.5;exitDx=0;exitDy=0;entryX=0;entryY=0.5;entryDx=0;entryDy=0;" parent="1" source="gfUBth482DZoh4JY9FzU-262" target="gfUBth482DZoh4JY9FzU-276" edge="1">
          <mxGeometry relative="1" as="geometry" />
        </mxCell>
        <mxCell id="gfUBth482DZoh4JY9FzU-285" value="Payment system" style="swimlane;whiteSpace=wrap" parent="1" vertex="1">
          <mxGeometry x="559.5" y="3680" width="210" height="850" as="geometry" />
        </mxCell>
        <mxCell id="gfUBth482DZoh4JY9FzU-290" value="Success" style="rhombus;fillColor=#ffffc0;strokeColor=#ff0000;" parent="gfUBth482DZoh4JY9FzU-285" vertex="1">
          <mxGeometry x="100" y="494" width="80" height="40" as="geometry" />
        </mxCell>
        <mxCell id="gfUBth482DZoh4JY9FzU-291" value="yes" style="edgeStyle=orthogonalEdgeStyle;elbow=horizontal;align=left;verticalAlign=bottom;endArrow=open;endSize=8;strokeColor=#FF0000;exitX=1;exitY=0.5;endFill=1;rounded=0;exitDx=0;exitDy=0;entryX=0.5;entryY=0;entryDx=0;entryDy=0;" parent="gfUBth482DZoh4JY9FzU-285" source="gfUBth482DZoh4JY9FzU-290" target="gfUBth482DZoh4JY9FzU-296" edge="1">
          <mxGeometry x="-1" relative="1" as="geometry">
            <mxPoint x="250" y="690" as="targetPoint" />
          </mxGeometry>
        </mxCell>
        <mxCell id="gfUBth482DZoh4JY9FzU-294" value="Process payment" style="" parent="gfUBth482DZoh4JY9FzU-285" vertex="1">
          <mxGeometry x="20" y="430" width="110" height="50" as="geometry" />
        </mxCell>
        <mxCell id="gfUBth482DZoh4JY9FzU-295" value="" style="endArrow=open;strokeColor=#FF0000;endFill=1;rounded=0;exitX=1;exitY=0.5;exitDx=0;exitDy=0;entryX=0.5;entryY=0;entryDx=0;entryDy=0;edgeStyle=orthogonalEdgeStyle;" parent="gfUBth482DZoh4JY9FzU-285" source="gfUBth482DZoh4JY9FzU-294" target="gfUBth482DZoh4JY9FzU-290" edge="1">
          <mxGeometry relative="1" as="geometry">
            <mxPoint x="-360" y="465" as="sourcePoint" />
            <mxPoint x="30" y="465" as="targetPoint" />
          </mxGeometry>
        </mxCell>
        <mxCell id="gfUBth482DZoh4JY9FzU-296" value="Send money&#xa;to system account" style="" parent="gfUBth482DZoh4JY9FzU-285" vertex="1">
          <mxGeometry x="20" y="560" width="110" height="50" as="geometry" />
        </mxCell>
        <mxCell id="gfUBth482DZoh4JY9FzU-297" value="" style="endArrow=open;strokeColor=#FF0000;endFill=1;rounded=0;exitX=1;exitY=0.5;exitDx=0;exitDy=0;entryX=0;entryY=0.5;entryDx=0;entryDy=0;" parent="1" source="gfUBth482DZoh4JY9FzU-267" target="gfUBth482DZoh4JY9FzU-294" edge="1">
          <mxGeometry relative="1" as="geometry">
            <mxPoint x="479.5" y="4134.5" as="sourcePoint" />
            <mxPoint x="589.5" y="4134.5" as="targetPoint" />
          </mxGeometry>
        </mxCell>
        <mxCell id="gfUBth482DZoh4JY9FzU-298" value="no" style="edgeStyle=orthogonalEdgeStyle;elbow=horizontal;align=left;verticalAlign=top;endArrow=open;endSize=8;strokeColor=#FF0000;endFill=1;rounded=0;exitX=0;exitY=0.5;exitDx=0;exitDy=0;entryX=0;entryY=0.5;entryDx=0;entryDy=0;" parent="1" source="gfUBth482DZoh4JY9FzU-290" target="gfUBth482DZoh4JY9FzU-266" edge="1">
          <mxGeometry x="-1" relative="1" as="geometry">
            <mxPoint x="439.5" y="4210" as="targetPoint" />
            <Array as="points">
              <mxPoint x="249.5" y="4194" />
              <mxPoint x="249.5" y="4055" />
            </Array>
          </mxGeometry>
        </mxCell>
        <mxCell id="gfUBth482DZoh4JY9FzU-299" value="" style="edgeStyle=orthogonalEdgeStyle;elbow=horizontal;align=left;verticalAlign=top;endArrow=open;endSize=8;strokeColor=#FF0000;endFill=1;rounded=0;entryX=1;entryY=0.5;entryDx=0;entryDy=0;exitX=0.5;exitY=1;exitDx=0;exitDy=0;" parent="1" source="gfUBth482DZoh4JY9FzU-296" target="gfUBth482DZoh4JY9FzU-279" edge="1">
          <mxGeometry x="-1" relative="1" as="geometry">
            <mxPoint x="939.5" y="4315" as="targetPoint" />
            <mxPoint x="929.5" y="4204" as="sourcePoint" />
          </mxGeometry>
        </mxCell>
        <mxCell id="gfUBth482DZoh4JY9FzU-300" value="" style="endArrow=none;strokeColor=#FF0000;endFill=0;rounded=0;exitX=1;exitY=0.5;exitDx=0;exitDy=0;entryX=0;entryY=0.5;entryDx=0;entryDy=0;startArrow=open;startFill=0;" parent="1" source="gfUBth482DZoh4JY9FzU-269" target="gfUBth482DZoh4JY9FzU-280" edge="1">
          <mxGeometry relative="1" as="geometry">
            <mxPoint x="434.5" y="4414.5" as="sourcePoint" />
            <mxPoint x="544.5" y="4414.5" as="targetPoint" />
          </mxGeometry>
        </mxCell>
        <mxCell id="gfUBth482DZoh4JY9FzU-301" value="" style="endArrow=none;strokeColor=#FF0000;endFill=0;rounded=0;exitX=1;exitY=0.5;exitDx=0;exitDy=0;entryX=0;entryY=0.5;entryDx=0;entryDy=0;startArrow=open;startFill=0;" parent="1" source="gfUBth482DZoh4JY9FzU-266" target="gfUBth482DZoh4JY9FzU-277" edge="1">
          <mxGeometry relative="1" as="geometry">
            <mxPoint x="429.5" y="4050" as="sourcePoint" />
            <mxPoint x="539.5" y="4050" as="targetPoint" />
          </mxGeometry>
        </mxCell>
        <mxCell id="gfUBth482DZoh4JY9FzU-343" value="User " style="swimlane;whiteSpace=wrap" parent="1" vertex="1">
          <mxGeometry x="160" y="2020" width="210" height="640" as="geometry">
            <mxRectangle x="164.5" y="128" width="90" height="30" as="alternateBounds" />
          </mxGeometry>
        </mxCell>
        <mxCell id="gfUBth482DZoh4JY9FzU-344" value="Choose a&#xa;biling plan" style="" parent="gfUBth482DZoh4JY9FzU-343" vertex="1">
          <mxGeometry x="22.5" y="110" width="110" height="50" as="geometry" />
        </mxCell>
        <mxCell id="gfUBth482DZoh4JY9FzU-345" value="" style="endArrow=open;strokeColor=#FF0000;endFill=1;rounded=0" parent="gfUBth482DZoh4JY9FzU-343" source="gfUBth482DZoh4JY9FzU-344" target="gfUBth482DZoh4JY9FzU-348" edge="1">
          <mxGeometry relative="1" as="geometry">
            <mxPoint x="77.5" y="270" as="targetPoint" />
          </mxGeometry>
        </mxCell>
        <mxCell id="gfUBth482DZoh4JY9FzU-346" value="" style="edgeStyle=elbowEdgeStyle;elbow=horizontal;verticalAlign=bottom;endArrow=open;endSize=8;strokeColor=#FF0000;endFill=1;rounded=0;entryX=0.5;entryY=0;entryDx=0;entryDy=0;exitX=0.5;exitY=1;exitDx=0;exitDy=0;" parent="gfUBth482DZoh4JY9FzU-343" source="gfUBth482DZoh4JY9FzU-347" target="gfUBth482DZoh4JY9FzU-344" edge="1">
          <mxGeometry x="320" y="20" as="geometry">
            <mxPoint x="77.5" y="110" as="targetPoint" />
          </mxGeometry>
        </mxCell>
        <mxCell id="gfUBth482DZoh4JY9FzU-347" value="" style="ellipse;shape=startState;fillColor=#000000;strokeColor=#ff0000;" parent="gfUBth482DZoh4JY9FzU-343" vertex="1">
          <mxGeometry x="62.5" y="40" width="30" height="30" as="geometry" />
        </mxCell>
        <mxCell id="gfUBth482DZoh4JY9FzU-348" value="Choose available&#xa;payment methods" style="" parent="gfUBth482DZoh4JY9FzU-343" vertex="1">
          <mxGeometry x="22.5" y="190" width="110" height="50" as="geometry" />
        </mxCell>
        <mxCell id="gfUBth482DZoh4JY9FzU-349" value="Pay" style="" parent="gfUBth482DZoh4JY9FzU-343" vertex="1">
          <mxGeometry x="22.5" y="320" width="110" height="50" as="geometry" />
        </mxCell>
        <mxCell id="gfUBth482DZoh4JY9FzU-366" value="" style="rounded=0;whiteSpace=wrap;html=1;" parent="gfUBth482DZoh4JY9FzU-343" vertex="1">
          <mxGeometry x="92.5" y="370" width="30" height="10" as="geometry" />
        </mxCell>
        <mxCell id="FpKJ4XtCi8fEJvp_Muv7-2" value="" style="rounded=0;whiteSpace=wrap;html=1;" parent="gfUBth482DZoh4JY9FzU-343" vertex="1">
          <mxGeometry x="100" y="240" width="30" height="10" as="geometry" />
        </mxCell>
        <mxCell id="FpKJ4XtCi8fEJvp_Muv7-8" value="" style="rounded=0;whiteSpace=wrap;html=1;" parent="gfUBth482DZoh4JY9FzU-343" vertex="1">
          <mxGeometry x="100" y="310" width="30" height="10" as="geometry" />
        </mxCell>
        <mxCell id="gfUBth482DZoh4JY9FzU-351" value="System" style="swimlane;whiteSpace=wrap" parent="1" vertex="1">
          <mxGeometry x="370" y="2020" width="160" height="640" as="geometry" />
        </mxCell>
        <mxCell id="gfUBth482DZoh4JY9FzU-352" value="Store the chosen&#xa;billing plan" style="" parent="gfUBth482DZoh4JY9FzU-351" vertex="1">
          <mxGeometry x="25" y="510" width="110" height="50" as="geometry" />
        </mxCell>
        <mxCell id="gfUBth482DZoh4JY9FzU-353" value="" style="ellipse;shape=endState;fillColor=#000000;strokeColor=#ff0000" parent="gfUBth482DZoh4JY9FzU-351" vertex="1">
          <mxGeometry x="65" y="590" width="30" height="30" as="geometry" />
        </mxCell>
        <mxCell id="gfUBth482DZoh4JY9FzU-354" value="" style="endArrow=open;strokeColor=#FF0000;endFill=1;rounded=0;entryX=0.5;entryY=0;entryDx=0;entryDy=0;exitX=0.5;exitY=1;exitDx=0;exitDy=0;" parent="gfUBth482DZoh4JY9FzU-351" source="gfUBth482DZoh4JY9FzU-352" target="gfUBth482DZoh4JY9FzU-353" edge="1">
          <mxGeometry relative="1" as="geometry">
            <mxPoint x="-67.5" y="830" as="sourcePoint" />
            <mxPoint x="-62.5" y="870" as="targetPoint" />
          </mxGeometry>
        </mxCell>
        <mxCell id="FpKJ4XtCi8fEJvp_Muv7-1" value="Create &#xa;payment link" style="" parent="gfUBth482DZoh4JY9FzU-351" vertex="1">
          <mxGeometry x="25" y="190" width="110" height="50" as="geometry" />
        </mxCell>
        <mxCell id="FpKJ4XtCi8fEJvp_Muv7-3" value="" style="rounded=0;whiteSpace=wrap;html=1;" parent="gfUBth482DZoh4JY9FzU-351" vertex="1">
          <mxGeometry x="40" y="240" width="30" height="10" as="geometry" />
        </mxCell>
        <mxCell id="FpKJ4XtCi8fEJvp_Muv7-7" value="" style="rounded=0;whiteSpace=wrap;html=1;" parent="gfUBth482DZoh4JY9FzU-351" vertex="1">
          <mxGeometry x="100" y="240" width="30" height="10" as="geometry" />
        </mxCell>
        <mxCell id="gfUBth482DZoh4JY9FzU-355" value="Payment system" style="swimlane;whiteSpace=wrap" parent="1" vertex="1">
          <mxGeometry x="530" y="2020" width="210" height="640" as="geometry" />
        </mxCell>
        <mxCell id="gfUBth482DZoh4JY9FzU-356" value="" style="rhombus;fillColor=#ffffc0;strokeColor=#ff0000;" parent="gfUBth482DZoh4JY9FzU-355" vertex="1">
          <mxGeometry x="115" y="390" width="80" height="40" as="geometry" />
        </mxCell>
        <mxCell id="gfUBth482DZoh4JY9FzU-357" value="[successfull payment]" style="edgeStyle=elbowEdgeStyle;align=left;verticalAlign=bottom;endArrow=open;endSize=8;strokeColor=#FF0000;exitX=0.5;exitY=1;endFill=1;rounded=0;exitDx=0;exitDy=0;entryX=0.5;entryY=0;entryDx=0;entryDy=0;elbow=vertical;" parent="gfUBth482DZoh4JY9FzU-355" source="gfUBth482DZoh4JY9FzU-356" target="gfUBth482DZoh4JY9FzU-360" edge="1">
          <mxGeometry x="0.7143" y="-40" relative="1" as="geometry">
            <mxPoint x="80" y="451" as="targetPoint" />
            <mxPoint x="155" y="431" as="sourcePoint" />
            <mxPoint as="offset" />
          </mxGeometry>
        </mxCell>
        <mxCell id="gfUBth482DZoh4JY9FzU-358" value="Process payment" style="" parent="gfUBth482DZoh4JY9FzU-355" vertex="1">
          <mxGeometry x="25" y="320" width="110" height="50" as="geometry" />
        </mxCell>
        <mxCell id="gfUBth482DZoh4JY9FzU-359" value="" style="endArrow=open;strokeColor=#FF0000;endFill=1;rounded=0;exitX=1;exitY=0.5;exitDx=0;exitDy=0;entryX=0.5;entryY=0;entryDx=0;entryDy=0;edgeStyle=orthogonalEdgeStyle;" parent="gfUBth482DZoh4JY9FzU-355" source="gfUBth482DZoh4JY9FzU-358" target="gfUBth482DZoh4JY9FzU-356" edge="1">
          <mxGeometry relative="1" as="geometry">
            <mxPoint x="-345" y="515" as="sourcePoint" />
            <mxPoint x="45" y="515" as="targetPoint" />
          </mxGeometry>
        </mxCell>
        <mxCell id="gfUBth482DZoh4JY9FzU-360" value="Send money&#xa;to system account" style="" parent="gfUBth482DZoh4JY9FzU-355" vertex="1">
          <mxGeometry x="25" y="460" width="110" height="50" as="geometry" />
        </mxCell>
        <mxCell id="gfUBth482DZoh4JY9FzU-367" value="" style="rounded=0;whiteSpace=wrap;html=1;" parent="gfUBth482DZoh4JY9FzU-355" vertex="1">
          <mxGeometry x="35" y="370" width="30" height="10" as="geometry" />
        </mxCell>
        <mxCell id="gfUBth482DZoh4JY9FzU-361" value="" style="endArrow=open;strokeColor=#FF0000;endFill=1;rounded=0;exitX=1;exitY=0.5;exitDx=0;exitDy=0;entryX=0;entryY=0.5;entryDx=0;entryDy=0;" parent="1" source="gfUBth482DZoh4JY9FzU-349" target="gfUBth482DZoh4JY9FzU-358" edge="1">
          <mxGeometry relative="1" as="geometry">
            <mxPoint x="400" y="2474.5" as="sourcePoint" />
            <mxPoint x="510" y="2474.5" as="targetPoint" />
          </mxGeometry>
        </mxCell>
        <mxCell id="gfUBth482DZoh4JY9FzU-362" value="[else]" style="edgeStyle=orthogonalEdgeStyle;elbow=horizontal;align=left;verticalAlign=top;endArrow=open;endSize=8;strokeColor=#FF0000;endFill=1;rounded=0;exitX=0;exitY=0.5;exitDx=0;exitDy=0;entryX=0;entryY=0.5;entryDx=0;entryDy=0;" parent="1" source="gfUBth482DZoh4JY9FzU-356" target="gfUBth482DZoh4JY9FzU-348" edge="1">
          <mxGeometry x="-0.8974" y="-20" relative="1" as="geometry">
            <mxPoint x="360" y="2550" as="targetPoint" />
            <Array as="points">
              <mxPoint x="170" y="2430" />
              <mxPoint x="170" y="2235" />
            </Array>
            <mxPoint as="offset" />
          </mxGeometry>
        </mxCell>
        <mxCell id="gfUBth482DZoh4JY9FzU-363" value="" style="edgeStyle=orthogonalEdgeStyle;elbow=horizontal;align=left;verticalAlign=top;endArrow=open;endSize=8;strokeColor=#FF0000;endFill=1;rounded=0;entryX=1;entryY=0.5;entryDx=0;entryDy=0;exitX=0.5;exitY=1;exitDx=0;exitDy=0;" parent="1" source="gfUBth482DZoh4JY9FzU-360" target="gfUBth482DZoh4JY9FzU-352" edge="1">
          <mxGeometry x="-1" relative="1" as="geometry">
            <mxPoint x="865" y="2705" as="targetPoint" />
            <mxPoint x="855" y="2594" as="sourcePoint" />
          </mxGeometry>
        </mxCell>
        <mxCell id="gfUBth482DZoh4JY9FzU-368" value="" style="endArrow=none;html=1;rounded=0;endFill=0;strokeColor=#3399FF;edgeStyle=orthogonalEdgeStyle;startArrow=open;startFill=0;entryX=0.5;entryY=1;entryDx=0;entryDy=0;exitX=0.5;exitY=1;exitDx=0;exitDy=0;" parent="1" source="gfUBth482DZoh4JY9FzU-367" target="gfUBth482DZoh4JY9FzU-366" edge="1">
          <mxGeometry relative="1" as="geometry">
            <mxPoint x="390" y="2259" as="sourcePoint" />
            <mxPoint x="500" y="2259" as="targetPoint" />
          </mxGeometry>
        </mxCell>
        <mxCell id="gfUBth482DZoh4JY9FzU-369" value="card data" style="edgeLabel;resizable=0;html=1;align=center;verticalAlign=middle;fontColor=#3399FF;" parent="gfUBth482DZoh4JY9FzU-368" connectable="0" vertex="1">
          <mxGeometry relative="1" as="geometry" />
        </mxCell>
        <mxCell id="FpKJ4XtCi8fEJvp_Muv7-4" value="" style="endArrow=none;html=1;rounded=0;endFill=0;strokeColor=#3399FF;edgeStyle=orthogonalEdgeStyle;startArrow=open;startFill=0;entryX=0.5;entryY=1;entryDx=0;entryDy=0;exitX=0.5;exitY=1;exitDx=0;exitDy=0;" parent="1" source="FpKJ4XtCi8fEJvp_Muv7-3" target="FpKJ4XtCi8fEJvp_Muv7-2" edge="1">
          <mxGeometry relative="1" as="geometry">
            <mxPoint x="590" y="2410" as="sourcePoint" />
            <mxPoint x="278" y="2410" as="targetPoint" />
          </mxGeometry>
        </mxCell>
        <mxCell id="FpKJ4XtCi8fEJvp_Muv7-5" value="billing plan&lt;br&gt;payment method" style="edgeLabel;resizable=0;html=1;align=center;verticalAlign=middle;fontColor=#3399FF;" parent="FpKJ4XtCi8fEJvp_Muv7-4" connectable="0" vertex="1">
          <mxGeometry relative="1" as="geometry" />
        </mxCell>
        <mxCell id="FpKJ4XtCi8fEJvp_Muv7-6" value="" style="endArrow=open;strokeColor=#FF0000;endFill=1;rounded=0;exitX=0.5;exitY=1;exitDx=0;exitDy=0;entryX=0.25;entryY=0;entryDx=0;entryDy=0;edgeStyle=orthogonalEdgeStyle;" parent="1" source="FpKJ4XtCi8fEJvp_Muv7-1" target="gfUBth482DZoh4JY9FzU-349" edge="1">
          <mxGeometry relative="1" as="geometry">
            <mxPoint x="450" y="2310" as="targetPoint" />
            <mxPoint x="248" y="2190" as="sourcePoint" />
          </mxGeometry>
        </mxCell>
        <mxCell id="FpKJ4XtCi8fEJvp_Muv7-9" value="" style="endArrow=none;html=1;rounded=0;endFill=0;strokeColor=#3399FF;edgeStyle=orthogonalEdgeStyle;startArrow=open;startFill=0;entryX=0.5;entryY=1;entryDx=0;entryDy=0;exitX=0.5;exitY=0;exitDx=0;exitDy=0;" parent="1" source="FpKJ4XtCi8fEJvp_Muv7-8" target="FpKJ4XtCi8fEJvp_Muv7-7" edge="1">
          <mxGeometry relative="1" as="geometry">
            <mxPoint x="435" y="2280" as="sourcePoint" />
            <mxPoint x="285" y="2280" as="targetPoint" />
            <Array as="points">
              <mxPoint x="275" y="2310" />
              <mxPoint x="485" y="2310" />
            </Array>
          </mxGeometry>
        </mxCell>
        <mxCell id="FpKJ4XtCi8fEJvp_Muv7-10" value="payment link" style="edgeLabel;resizable=0;html=1;align=center;verticalAlign=middle;fontColor=#3399FF;" parent="FpKJ4XtCi8fEJvp_Muv7-9" connectable="0" vertex="1">
          <mxGeometry relative="1" as="geometry" />
        </mxCell>
        <mxCell id="Y0ffsOMqElZZgWjxoTSG-1" value="User " style="swimlane;whiteSpace=wrap" vertex="1" parent="1">
          <mxGeometry x="145" y="2760" width="210" height="460" as="geometry">
            <mxRectangle x="164.5" y="128" width="90" height="30" as="alternateBounds" />
          </mxGeometry>
        </mxCell>
        <mxCell id="Y0ffsOMqElZZgWjxoTSG-2" value="Choose a&#xa;biling plan" style="" vertex="1" parent="Y0ffsOMqElZZgWjxoTSG-1">
          <mxGeometry x="22.5" y="110" width="110" height="50" as="geometry" />
        </mxCell>
        <mxCell id="Y0ffsOMqElZZgWjxoTSG-3" value="" style="endArrow=open;strokeColor=#FF0000;endFill=1;rounded=0" edge="1" parent="Y0ffsOMqElZZgWjxoTSG-1" source="Y0ffsOMqElZZgWjxoTSG-2" target="Y0ffsOMqElZZgWjxoTSG-6">
          <mxGeometry relative="1" as="geometry">
            <mxPoint x="77.5" y="270" as="targetPoint" />
          </mxGeometry>
        </mxCell>
        <mxCell id="Y0ffsOMqElZZgWjxoTSG-4" value="" style="edgeStyle=elbowEdgeStyle;elbow=horizontal;verticalAlign=bottom;endArrow=open;endSize=8;strokeColor=#FF0000;endFill=1;rounded=0;entryX=0.5;entryY=0;entryDx=0;entryDy=0;exitX=0.5;exitY=1;exitDx=0;exitDy=0;" edge="1" parent="Y0ffsOMqElZZgWjxoTSG-1" source="Y0ffsOMqElZZgWjxoTSG-5" target="Y0ffsOMqElZZgWjxoTSG-2">
          <mxGeometry x="320" y="20" as="geometry">
            <mxPoint x="77.5" y="110" as="targetPoint" />
          </mxGeometry>
        </mxCell>
        <mxCell id="Y0ffsOMqElZZgWjxoTSG-5" value="" style="ellipse;shape=startState;fillColor=#000000;strokeColor=#ff0000;" vertex="1" parent="Y0ffsOMqElZZgWjxoTSG-1">
          <mxGeometry x="62.5" y="40" width="30" height="30" as="geometry" />
        </mxCell>
        <mxCell id="Y0ffsOMqElZZgWjxoTSG-6" value="Choose available&#xa;payment methods" style="" vertex="1" parent="Y0ffsOMqElZZgWjxoTSG-1">
          <mxGeometry x="22.5" y="190" width="110" height="50" as="geometry" />
        </mxCell>
        <mxCell id="Y0ffsOMqElZZgWjxoTSG-7" value="Get payment link" style="" vertex="1" parent="Y0ffsOMqElZZgWjxoTSG-1">
          <mxGeometry x="22.5" y="320" width="110" height="50" as="geometry" />
        </mxCell>
        <mxCell id="Y0ffsOMqElZZgWjxoTSG-9" value="" style="rounded=0;whiteSpace=wrap;html=1;" vertex="1" parent="Y0ffsOMqElZZgWjxoTSG-1">
          <mxGeometry x="100" y="240" width="30" height="10" as="geometry" />
        </mxCell>
        <mxCell id="Y0ffsOMqElZZgWjxoTSG-10" value="" style="rounded=0;whiteSpace=wrap;html=1;" vertex="1" parent="Y0ffsOMqElZZgWjxoTSG-1">
          <mxGeometry x="100" y="310" width="30" height="10" as="geometry" />
        </mxCell>
        <mxCell id="Y0ffsOMqElZZgWjxoTSG-13" value="" style="ellipse;shape=endState;fillColor=#000000;strokeColor=#ff0000" vertex="1" parent="Y0ffsOMqElZZgWjxoTSG-1">
          <mxGeometry x="62.5" y="400" width="30" height="30" as="geometry" />
        </mxCell>
        <mxCell id="Y0ffsOMqElZZgWjxoTSG-14" value="" style="endArrow=open;strokeColor=#FF0000;endFill=1;rounded=0;entryX=0.5;entryY=0;entryDx=0;entryDy=0;exitX=0.5;exitY=1;exitDx=0;exitDy=0;" edge="1" parent="Y0ffsOMqElZZgWjxoTSG-1" source="Y0ffsOMqElZZgWjxoTSG-7" target="Y0ffsOMqElZZgWjxoTSG-13">
          <mxGeometry relative="1" as="geometry">
            <mxPoint x="290" y="560" as="sourcePoint" />
            <mxPoint x="147.5" y="870" as="targetPoint" />
          </mxGeometry>
        </mxCell>
        <mxCell id="Y0ffsOMqElZZgWjxoTSG-11" value="System" style="swimlane;whiteSpace=wrap" vertex="1" parent="1">
          <mxGeometry x="355" y="2760" width="160" height="460" as="geometry" />
        </mxCell>
        <mxCell id="Y0ffsOMqElZZgWjxoTSG-15" value="Create &#xa;payment link" style="" vertex="1" parent="Y0ffsOMqElZZgWjxoTSG-11">
          <mxGeometry x="25" y="190" width="110" height="50" as="geometry" />
        </mxCell>
        <mxCell id="Y0ffsOMqElZZgWjxoTSG-16" value="" style="rounded=0;whiteSpace=wrap;html=1;" vertex="1" parent="Y0ffsOMqElZZgWjxoTSG-11">
          <mxGeometry x="40" y="240" width="30" height="10" as="geometry" />
        </mxCell>
        <mxCell id="Y0ffsOMqElZZgWjxoTSG-17" value="" style="rounded=0;whiteSpace=wrap;html=1;" vertex="1" parent="Y0ffsOMqElZZgWjxoTSG-11">
          <mxGeometry x="100" y="240" width="30" height="10" as="geometry" />
        </mxCell>
        <mxCell id="Y0ffsOMqElZZgWjxoTSG-30" value="" style="endArrow=none;html=1;rounded=0;endFill=0;strokeColor=#3399FF;edgeStyle=orthogonalEdgeStyle;startArrow=open;startFill=0;entryX=0.5;entryY=1;entryDx=0;entryDy=0;exitX=0.5;exitY=1;exitDx=0;exitDy=0;" edge="1" parent="1" source="Y0ffsOMqElZZgWjxoTSG-16" target="Y0ffsOMqElZZgWjxoTSG-9">
          <mxGeometry relative="1" as="geometry">
            <mxPoint x="575" y="3150" as="sourcePoint" />
            <mxPoint x="263" y="3150" as="targetPoint" />
          </mxGeometry>
        </mxCell>
        <mxCell id="Y0ffsOMqElZZgWjxoTSG-31" value="billing plan&lt;br&gt;payment method" style="edgeLabel;resizable=0;html=1;align=center;verticalAlign=middle;fontColor=#3399FF;" connectable="0" vertex="1" parent="Y0ffsOMqElZZgWjxoTSG-30">
          <mxGeometry relative="1" as="geometry" />
        </mxCell>
        <mxCell id="Y0ffsOMqElZZgWjxoTSG-32" value="" style="endArrow=open;strokeColor=#FF0000;endFill=1;rounded=0;exitX=0.5;exitY=1;exitDx=0;exitDy=0;entryX=0.25;entryY=0;entryDx=0;entryDy=0;edgeStyle=orthogonalEdgeStyle;" edge="1" parent="1" source="Y0ffsOMqElZZgWjxoTSG-15" target="Y0ffsOMqElZZgWjxoTSG-7">
          <mxGeometry relative="1" as="geometry">
            <mxPoint x="435" y="3050" as="targetPoint" />
            <mxPoint x="233" y="2930" as="sourcePoint" />
          </mxGeometry>
        </mxCell>
        <mxCell id="Y0ffsOMqElZZgWjxoTSG-33" value="" style="endArrow=none;html=1;rounded=0;endFill=0;strokeColor=#3399FF;edgeStyle=orthogonalEdgeStyle;startArrow=open;startFill=0;entryX=0.5;entryY=1;entryDx=0;entryDy=0;exitX=0.5;exitY=0;exitDx=0;exitDy=0;" edge="1" parent="1" source="Y0ffsOMqElZZgWjxoTSG-10" target="Y0ffsOMqElZZgWjxoTSG-17">
          <mxGeometry relative="1" as="geometry">
            <mxPoint x="420" y="3020" as="sourcePoint" />
            <mxPoint x="270" y="3020" as="targetPoint" />
            <Array as="points">
              <mxPoint x="260" y="3050" />
              <mxPoint x="470" y="3050" />
            </Array>
          </mxGeometry>
        </mxCell>
        <mxCell id="Y0ffsOMqElZZgWjxoTSG-34" value="payment link" style="edgeLabel;resizable=0;html=1;align=center;verticalAlign=middle;fontColor=#3399FF;" connectable="0" vertex="1" parent="Y0ffsOMqElZZgWjxoTSG-33">
          <mxGeometry relative="1" as="geometry" />
        </mxCell>
        <mxCell id="Y0ffsOMqElZZgWjxoTSG-46" value="System" style="swimlane;whiteSpace=wrap" vertex="1" parent="1">
          <mxGeometry x="145" y="3240" width="160" height="400" as="geometry" />
        </mxCell>
        <mxCell id="Y0ffsOMqElZZgWjxoTSG-48" value="" style="ellipse;shape=endState;fillColor=#000000;strokeColor=#ff0000" vertex="1" parent="Y0ffsOMqElZZgWjxoTSG-46">
          <mxGeometry x="57.5" y="340" width="30" height="30" as="geometry" />
        </mxCell>
        <mxCell id="Y0ffsOMqElZZgWjxoTSG-47" value="Store the chosen&#xa;billing plan" style="" vertex="1" parent="Y0ffsOMqElZZgWjxoTSG-46">
          <mxGeometry x="25" y="160" width="110" height="50" as="geometry" />
        </mxCell>
        <mxCell id="Y0ffsOMqElZZgWjxoTSG-49" value="" style="endArrow=open;strokeColor=#FF0000;endFill=1;rounded=0;entryX=0.5;entryY=0;entryDx=0;entryDy=0;exitX=0.5;exitY=1;exitDx=0;exitDy=0;" edge="1" parent="Y0ffsOMqElZZgWjxoTSG-46" source="Y0ffsOMqElZZgWjxoTSG-71" target="Y0ffsOMqElZZgWjxoTSG-48">
          <mxGeometry relative="1" as="geometry">
            <mxPoint x="-70" y="660" as="sourcePoint" />
            <mxPoint x="72.5" y="350" as="targetPoint" />
          </mxGeometry>
        </mxCell>
        <mxCell id="Y0ffsOMqElZZgWjxoTSG-71" value="Notify user" style="" vertex="1" parent="Y0ffsOMqElZZgWjxoTSG-46">
          <mxGeometry x="17.5" y="250" width="110" height="50" as="geometry" />
        </mxCell>
        <mxCell id="Y0ffsOMqElZZgWjxoTSG-67" value="" style="endArrow=open;strokeColor=#FF0000;endFill=1;rounded=0;exitX=0.5;exitY=1;exitDx=0;exitDy=0;entryX=0.564;entryY=0.06;entryDx=0;entryDy=0;edgeStyle=orthogonalEdgeStyle;entryPerimeter=0;" edge="1" parent="Y0ffsOMqElZZgWjxoTSG-46" source="Y0ffsOMqElZZgWjxoTSG-47" target="Y0ffsOMqElZZgWjxoTSG-71">
          <mxGeometry relative="1" as="geometry">
            <mxPoint x="77.5" y="120" as="targetPoint" />
            <mxPoint x="-124.5" as="sourcePoint" />
          </mxGeometry>
        </mxCell>
        <mxCell id="Y0ffsOMqElZZgWjxoTSG-43" value="" style="rounded=0;whiteSpace=wrap;html=1;" vertex="1" parent="Y0ffsOMqElZZgWjxoTSG-46">
          <mxGeometry x="97.5" y="210" width="30" height="10" as="geometry" />
        </mxCell>
        <mxCell id="Y0ffsOMqElZZgWjxoTSG-53" value="Payment system" style="swimlane;whiteSpace=wrap" vertex="1" parent="1">
          <mxGeometry x="305" y="3240" width="210" height="400" as="geometry" />
        </mxCell>
        <mxCell id="Y0ffsOMqElZZgWjxoTSG-56" value="Notify successful&#xa;payment&#xa;" style="" vertex="1" parent="Y0ffsOMqElZZgWjxoTSG-53">
          <mxGeometry x="10" y="90" width="110" height="50" as="geometry" />
        </mxCell>
        <mxCell id="Y0ffsOMqElZZgWjxoTSG-59" value="" style="rounded=0;whiteSpace=wrap;html=1;" vertex="1" parent="Y0ffsOMqElZZgWjxoTSG-53">
          <mxGeometry x="80" y="140" width="30" height="10" as="geometry" />
        </mxCell>
        <mxCell id="Y0ffsOMqElZZgWjxoTSG-40" value="" style="ellipse;shape=startState;fillColor=#000000;strokeColor=#ff0000;" vertex="1" parent="Y0ffsOMqElZZgWjxoTSG-53">
          <mxGeometry x="50" y="30" width="30" height="30" as="geometry" />
        </mxCell>
        <mxCell id="Y0ffsOMqElZZgWjxoTSG-39" value="" style="edgeStyle=elbowEdgeStyle;elbow=horizontal;verticalAlign=bottom;endArrow=open;endSize=8;strokeColor=#FF0000;endFill=1;rounded=0;entryX=0.5;entryY=0;entryDx=0;entryDy=0;exitX=0.5;exitY=1;exitDx=0;exitDy=0;" edge="1" parent="Y0ffsOMqElZZgWjxoTSG-53" source="Y0ffsOMqElZZgWjxoTSG-40" target="Y0ffsOMqElZZgWjxoTSG-56">
          <mxGeometry x="-50" y="20" as="geometry">
            <mxPoint x="-292.5" y="110" as="targetPoint" />
          </mxGeometry>
        </mxCell>
        <mxCell id="Y0ffsOMqElZZgWjxoTSG-62" value="" style="edgeStyle=orthogonalEdgeStyle;elbow=horizontal;align=left;verticalAlign=top;endArrow=open;endSize=8;strokeColor=#FF0000;endFill=1;rounded=0;entryX=1;entryY=0.5;entryDx=0;entryDy=0;exitX=0.5;exitY=1;exitDx=0;exitDy=0;" edge="1" parent="1" source="Y0ffsOMqElZZgWjxoTSG-56" target="Y0ffsOMqElZZgWjxoTSG-47">
          <mxGeometry x="-1" relative="1" as="geometry">
            <mxPoint x="640" y="3925" as="targetPoint" />
            <mxPoint x="630" y="3814" as="sourcePoint" />
          </mxGeometry>
        </mxCell>
        <mxCell id="Y0ffsOMqElZZgWjxoTSG-63" value="" style="endArrow=none;html=1;rounded=0;endFill=0;strokeColor=#3399FF;edgeStyle=orthogonalEdgeStyle;startArrow=open;startFill=0;entryX=0.5;entryY=1;entryDx=0;entryDy=0;exitX=0.5;exitY=1;exitDx=0;exitDy=0;" edge="1" parent="1" source="Y0ffsOMqElZZgWjxoTSG-59" target="Y0ffsOMqElZZgWjxoTSG-43">
          <mxGeometry relative="1" as="geometry">
            <mxPoint x="165" y="3479" as="sourcePoint" />
            <mxPoint x="275" y="3479" as="targetPoint" />
          </mxGeometry>
        </mxCell>
        <mxCell id="Y0ffsOMqElZZgWjxoTSG-64" value="&lt;div&gt;user id&lt;/div&gt;&lt;div&gt;billing plan&lt;br&gt;&lt;/div&gt;" style="edgeLabel;resizable=0;html=1;align=center;verticalAlign=middle;fontColor=#3399FF;" connectable="0" vertex="1" parent="Y0ffsOMqElZZgWjxoTSG-63">
          <mxGeometry relative="1" as="geometry" />
        </mxCell>
      </root>
    </mxGraphModel>
  </diagram>
</mxfile>
